<svg width="512" height="512" viewBox="0 0 512 512" fill="none" xmlns="http://www.w3.org/2000/svg">
  <defs>
    <linearGradient id="bg" x1="64" y1="32" x2="456" y2="488" gradientUnits="userSpaceOnUse">
      <stop stop-color="#34D399"/>
      <stop offset="1" stop-color="#15803D"/>
    </linearGradient>
    <linearGradient id="shine" x1="112" y1="72" x2="408" y2="376" gradientUnits="userSpaceOnUse">
      <stop stop-color="#FFFFFF" stop-opacity="0.42"/>
      <stop offset="1" stop-color="#FFFFFF" stop-opacity="0"/>
    </linearGradient>
    <linearGradient id="letter" x1="176" y1="132" x2="338" y2="372" gradientUnits="userSpaceOnUse">
      <stop stop-color="#FFFFFF"/>
      <stop offset="1" stop-color="#DCFCE7"/>
    </linearGradient>
  </defs>

  <rect x="28" y="28" width="456" height="456" rx="120" fill="#0F172A"/>
  <rect x="32" y="32" width="448" height="448" rx="116" fill="url(#bg)"/>
  <rect x="68" y="68" width="376" height="376" rx="92" fill="url(#shine)"/>

  <path
    d="M166 122H256C324.483 122 380 177.517 380 246C380 314.483 324.483 370 256 370H166V122Z"
    fill="url(#letter)"
  />
  <path
    d="M220 180H256C292.451 180 322 209.549 322 246C322 282.451 292.451 312 256 312H220V180Z"
    fill="#16A34A"
  />
  <path
    d="M220 204H256C279.196 204 298 222.804 298 246C298 269.196 279.196 288 256 288H220V204Z"
    fill="#22C55E"
    fill-opacity="0.36"
  />
</svg>
