<svg width="512" height="512" viewBox="0 0 512 512" fill="none" xmlns="http://www.w3.org/2000/svg">
  <defs>
    <linearGradient id="bg" x1="56" y1="40" x2="456" y2="480" gradientUnits="userSpaceOnUse">
      <stop stop-color="#22C55E"/>
      <stop offset="1" stop-color="#15803D"/>
    </linearGradient>
    <linearGradient id="roof" x1="118" y1="128" x2="398" y2="224" gradientUnits="userSpaceOnUse">
      <stop stop-color="#111827"/>
      <stop offset="1" stop-color="#1F2937"/>
    </linearGradient>
    <linearGradient id="letter" x1="208" y1="252" x2="304" y2="352" gradientUnits="userSpaceOnUse">
      <stop stop-color="#34D399"/>
      <stop offset="1" stop-color="#16A34A"/>
    </linearGradient>
    <linearGradient id="shine" x1="98" y1="82" x2="410" y2="392" gradientUnits="userSpaceOnUse">
      <stop stop-color="#FFFFFF" stop-opacity="0.38"/>
      <stop offset="1" stop-color="#FFFFFF" stop-opacity="0"/>
    </linearGradient>
  </defs>

  <rect x="28" y="28" width="456" height="456" rx="120" fill="#0F172A"/>
  <rect x="32" y="32" width="448" height="448" rx="116" fill="url(#bg)"/>
  <rect x="68" y="68" width="376" height="376" rx="92" fill="url(#shine)"/>

  <path d="M96 218L256 110L416 218V244H96V218Z" fill="url(#roof)"/>
  <rect x="124" y="242" width="264" height="176" rx="26" fill="#111827"/>
  <rect x="168" y="276" width="176" height="110" rx="18" fill="#F9FAFB"/>
  <path d="M210 276H260C305.287 276 342 301.072 342 332C342 362.928 305.287 388 260 388H210V276Z" fill="url(#letter)"/>
  <path d="M244 304H260C287.614 304 310 316.536 310 332C310 347.464 287.614 360 260 360H244V304Z" fill="#ECFDF5"/>
</svg>
